<svg xmlns="http://www.w3.org/2000/svg" viewBox="0 0 353.29 276.41"><title>Asset 1</title><g id="Layer_2" data-name="Layer 2"><g id="Layer_1-2" data-name="Layer 1"><path d="M301.46,153.23c-.07-.09-.12-.18-.2-.27-4-5-23.37-15.29-32.92-19.26,0,0,19.55-16.17,25-21S307.88,98,312.43,89a24.8,24.8,0,0,0-1.17-24.25c-3.68-5.44-17.93-10.14-25.87-10.73s-17.64,3.68-26.6,9.55c0,0-2.65-2.2-4.85-2.05s-5.29,1-7.5,5.88S242,85.2,240,95.19c-1.87,9.08-5.55,23.86-8.08,38.83-4.48,2.88-8.87,6.49-14.22,6.14a4.11,4.11,0,0,0-3.5,2.5c-3.4-1.23-7.18.48-10.57,2.45.17-8.34.6-29.94.37-33.6-.3-4.56-.45-24.4-2.06-30.43s-6.47-9.26-9.7-9.55-5.73.59-7.94,5.29-3.23,10.44-5,15-5,17.93-7.05,24.55-6.91,18.52-8.67,24.54S158,158.83,155.17,166a5.63,5.63,0,0,0-1.44,1.89,8.71,8.71,0,0,0-1.68.89c-3.72,2.59-2.79,6.46-2.12,9.84.4,0,.82.08,1.24.14-1.11,3.17-2.67,7.77-3.79,11.63-1.91,6.62-3.38,14-.15,15.88s7.35-4.56,9.26-9.26c0,0,3.82-12.05,4.56-15.14,0,0,.17-.73.46-1.81a11.1,11.1,0,0,0,6.9-3c1.57-1.69,5-1.86,7.63-2.57,2.39-.25,3.9-2.9,6.58-1.77a16.28,16.28,0,0,1,5-5.95C188.11,174,188.86,187,189,191c.14,5.21.15,13.91-.11,21-.1.41-.2.81-.28,1.21-1,2.79,1.06,5.93-1.69,8.28a12.51,12.51,0,0,1,1.66,2.52c-.14,7.85-.27,16.69-.46,19.8-.29,4.85-1.17,19.4-1.17,25a7.59,7.59,0,0,0,7.64,7.64,10.69,10.69,0,0,0,5.71-2.46c.82-.23,1.66-.48,2.49-.73,4.19-4,3.34-11.35,2.84-17.16.24-5.49.27-11.6.13-16.39,0-.62,0-1.33,0-2.13a45.89,45.89,0,0,0,.48-4.8c.6-7.62,1.21-15.21-.07-23.67a8.77,8.77,0,0,1,1.27-4.44l-1-1.56c.35-4.87,2.54-9.14,1.93-13.33a7.32,7.32,0,0,0-2.78-5c-.09-5.27-.27-13.14-.58-19.88H205l-.09-.13c-.08-1.79-.17-3.49-.27-5,3.79-1.53,7.6-3.4,11.65-4.87,3.92-1.12,7.74-4.1,12.71-5.16a.81.81,0,0,0,.38-.14c-1.52,10.22-4,26.94-4.39,30.15-.59,4.71-4,22.79-4.85,26.61a12.78,12.78,0,0,0,3.68,12.49c4,3.53,7.05,1.47,11-1.91,3.58-3,4.29-13.42,5.7-22.87.28-.67.55-1.34.77-2,1.26-2.4-.28-5.49,2.48-7.29a12.73,12.73,0,0,1-1.37-3c1.81-12.91,4-31.18,4-31.18l5.14-3.67s11.62,4.7,15.14,6.47,13.82,6.32,18.52,10.14c3,2.43,7.43,3.07,10.78,2.61,2.32,1.72,4.29,3.66,6.78,4.4,4.35,1.29,6.79-1.85,9-4.49C309.09,162.08,307.46,155.51,301.46,153.23ZM282.6,98.43c-6.32,4.55-21.31,18.52-31,25.13,0,0,5.88-24.1,7.06-29.69a138.82,138.82,0,0,0,1.91-16.17c8.23-.29,18.37-4.41,21.75-4.85s13.38-1.17,14.55,3.38S288.92,93.87,282.6,98.43Zm-103,32.48c2.64-4.85,6.76-16.9,6.76-16.9-.25,9.35.23,32.42.39,39.66-1,.35-2,.72-2.94,1.15-5.44,2.21-10.86,4.42-16.23,8.06C170.52,154.4,177.5,134.69,179.57,130.91Z" style="fill:#1c211b"/><path d="M57,88.24c.59-1.41,1.18-2.89,1.76-4.4A10.56,10.56,0,0,1,60.07,83a3,3,0,0,1-.43-1.48,82.61,82.61,0,0,0,3.85-14,11.33,11.33,0,0,0,1.32-7.53c0-.09,0-.17.07-.26s-.11-.25-.17-.37c-.57-3.23-1.95-6.3-2.46-9a28.8,28.8,0,0,0-4-.16c-.17,0-.35-.07-.53-.09a2.53,2.53,0,0,0-1.88.59,5.81,5.81,0,0,0-3.09,2.81,9.15,9.15,0,0,0-.76,2A35.18,35.18,0,0,0,49.7,58a10,10,0,0,1,.41,3.71c-.42.93-.87,1.86-1.35,2.78-3.72,7-12.93,31.15-16.07,40.17S23.87,132.13,20.74,140s-7.84,26.85-9.41,31.16a16.38,16.38,0,0,0-.83,4.46,3.37,3.37,0,0,0-1.16,2,6.79,6.79,0,0,0,1.12-1.24c0,.6,0,1.19,0,1.78a3.94,3.94,0,0,0-2,1.64l.06.08a10.63,10.63,0,0,0-1.89,2c-.2.14-.08.86.16,1.6l-.06.14a2.11,2.11,0,0,0,.59,1.12,1.12,1.12,0,0,0,.38.48,5.83,5.83,0,0,0,3-1.72l-.11.26.17-.11a1.35,1.35,0,0,1,0-.18l.57-.5a2.76,2.76,0,0,0,1.17,1.53c2.15,1,5.48,1.17,10-3.92,0,0,2.57-4.22,5.1-9.21.36-.08.59,0,.33.58.33-.67.64-1.29,1.09-.46.41-1-.47-.72-.94-1.08.58-1.17,1.15-2.36,1.67-3.55,1.74-3.95,4-12.09,6.18-19.82a13.33,13.33,0,0,1,1.22-1.95c2-1.94,2.65-5.9,3.93-9.11-.09-.51-.18-1-.28-1.55.23-1.31,1.79-3,1.69-3.49.49-5,3-9.06,3.67-13,.13-.51.25-1,.39-1.51C50.6,105.24,55.19,92.56,57,88.24Z" style="fill:#1c211b"/><path d="M67.38,35.91c4.11,1,6.46-4.11,8.62-7.44s2.55-9.41-.39-12.74-7.84,0-10.19,5.49S62,34.64,67.38,35.91Z" style="fill:#1c211b"/><path d="M149.88,134.29c4.31-10.39,14.5-40.76,17.83-49s10.19-29.4,12.74-37.63c.4-1.29.78-2.71,1.13-4.19L183,42.2a4.07,4.07,0,0,1-.12-.63,2.36,2.36,0,0,1-1,.93c.4-1.78.75-3.64,1-5.45l.25-.06-.21-.17.21-1.38a6.32,6.32,0,0,0,3.56-2.78,1,1,0,0,1-.08-.11,15.76,15.76,0,0,0,2.56-2.84c.26-.2.17-1.25-.07-2.32,0-.08.06-.13.09-.21a3.2,3.2,0,0,0-.64-1.63,1.66,1.66,0,0,0-.45-.7c-1.28.1-2.64,1.23-4,2.49l.16-.38-.22.17c0,.1,0,.17,0,.25l-.37.35c0-1.77-.24-3.06-.7-3.57-1.77-2-4.31-2-6.67,2.15-.32.57-.77,1.4-1.31,2.44-4.65,3-7.5,11.48-10.53,18.13-.32.8.18,1.71.39,2.59-.28.6-.56,1.2-.82,1.79l-.83.62c-.48,1.17-.87,3.09-1.42,3.5C157.45,58.69,156,67.87,153,72.6c-2,3.16-2.83,7-5.41,10.57-2.65,2.82-3.84,8.58-5.73,13.24.08.76.15,1.5.22,2.26-.4,1.91-2.5,4.33-2.43,5.08-1,7.26-4.56,13.17-5.73,18.94-2.09,7.8-5.07,15.14-6.82,22.47l-.8,2.15-.62.09c.05.45.08.89.12,1.28-2.53,6.92-5,13.76-6.66,18.9-.23.34-.46.67-.7,1-.93-5.2-4.82-22.41-5.75-30.55-1-8.62-2.35-31-3.52-45.85a92.36,92.36,0,0,0-8.23-31c-2-4.11-2.35-6.86-7.06-3.92s-10.38,22.34-13.13,31S65.61,121.36,63.85,129s-8.62,29.2-10.78,35.47S48.56,181.32,51.31,185s9.6-1.54,12.73-9.6c2.75-7.05,4.12-13.91,6.67-21.75s6.66-24.3,10-31,5.1-10.19,11.56-29.2c.59,2.74,2.36,33.31,2.94,41.35s3.14,15.87,4.12,24.49,4.11,24.3,4.7,33.32a107.55,107.55,0,0,0,1.38,11.44,22.73,22.73,0,0,0,0,2.86c0,.12-.08.24-.11.36l.18.56c.44,4.69,1.93,9.15,2.33,13.1,3.51.35,7.42.89,10.39-2.07a7.49,7.49,0,0,0,1.88-2.34c.43-.83,1-2.09,1.64-3.66.86-1,1.72-2.05,2.58-3.2a12,12,0,0,1-.32-2.57c3.43-9.13,7.58-21.56,8.25-25.85C133.22,175.05,145.57,144.68,149.88,134.29Z" style="fill:#1c211b"/><path d="M341.09,45.22H341a3,3,0,0,0,.39-.64A1.27,1.27,0,0,1,341,43c.71-.06,1-.11,1.3-1.38-1.19-2.83-2.84,2-4.52,2.17-1.22,3.46-5.35,2.73-7.2,6.95.4.8.62.6.62,2,.45.43.79.33,1.09,0A36.7,36.7,0,0,0,331,57a16.49,16.49,0,0,0-.8,2,27.71,27.71,0,0,1-3,10.09,3.75,3.75,0,0,0,.42-.34c.11.65-.37,1-.87,1.22-.31.59-.62,1.18-1,1.76a21.18,21.18,0,0,1-.7,4.18c-.5,0-.65-.17-.64-.38,0,.61.05,1,.69.53-.09,1.07-.7,1.42-.9,2.18l-.46-1.92c-.51.67.56.86,0,1.78-.05,1.37.7.05,1.35-.17-.23.74-.45,1.47-.67,2.2l-.39.24.58-.91c-1.06-.6-.5,1.62-1.27,1.93l-.05-.15c-.37,1.47.58-.08.56.76l0,.14-1.32,1.59.82-.16a2.08,2.08,0,0,1,0,.25l-.42,1.4a29.59,29.59,0,0,0-1.56,3.08,9.61,9.61,0,0,0-.21,3.08c-.19.73-.35,1.37-.47,1.87v0l0,0,0,.09c-1.38,6.06-8.66,32.84-10.71,38.4-1.82,4.94-.41,9.41,3.69,12.11a7.76,7.76,0,0,0,3.43,1.84,4,4,0,0,0,1.27-.64,8,8,0,0,0,6.75-4.2c3.24-5.73,3.82-12.2,6.91-20.72s5.73-22.34,7.5-28.95,6.17-21,9-29.55S347.85,46.25,341.09,45.22Zm-5.34,1.69-.18.17a2.88,2.88,0,0,1,.22-.38C335.77,46.78,335.77,46.84,335.75,46.91Z" style="fill:#1c211b"/><path d="M350.68,16.73c-1.56-1.14-3.86-.08-5.67,1.4s-2.79,5.42-3.61,8.21-.07,5.26,2.05,6.07c3.86,1.48,5.42-.41,6.82-2.3s1.39-4.35,2.63-6.73S352.24,17.88,350.68,16.73Z" style="fill:#1c211b"/><path d="M1.9,201.64c-.07.21-.14.36-.35.38.48.59.94,0,1.35-.73C2.71,200.28,2.8,202.64,1.9,201.64Z" style="fill:#1c211b"/><path d="M2.06,201.11l-.22.47.06.06a2,2,0,0,1,.23-.5Z" style="fill:#1c211b"/><path d="M.29,201.27c.09-.53.51-1.3,1-.91l-.36-.92L0,201.71c.68-.26,1.28-.89,2.06-.6l.45-.94A4.74,4.74,0,0,1,.29,201.27Z" style="fill:#1c211b"/><path d="M3.38,196.05a1,1,0,0,0-.67.22C2.87,196.35,3.12,196.21,3.38,196.05Z" style="fill:#1c211b"/><path d="M5.61,195.87c-.49.35-1,.69-1.43.3l.29-.43c-.26-.24-.7.07-1.09.31C4.11,196.11,4.4,197.29,5.61,195.87Z" style="fill:#1c211b"/><path d="M3.72,200.71c1.35.23.75-1,2.14-1.5l-.08-.42Z" style="fill:#1c211b"/><path d="M15.85,187.74l0,0h0c1.66,0,1.57-1.56,3.12-2.18L17.55,185C17.24,186.33,16.12,186.22,15.85,187.74Z" style="fill:#1c211b"/><path d="M27.93,171.91c-.07.15-.15.31-.23.45A2.75,2.75,0,0,0,27.93,171.91Z" style="fill:#1c211b"/><polygon points="29.99 169.62 31.26 169.44 31.18 169.02 29.99 169.62" style="fill:#1c211b"/><path d="M31.77,165.56a1,1,0,0,1,.78-.27l-.69,2.34,1.34-1.85C33,164.31,32.45,164.79,31.77,165.56Z" style="fill:#1c211b"/><path d="M29.91,167.12l.15.82c.24.11.6-.92,1.14-1.73C30.75,166.72,30.29,167.16,29.91,167.12Z" style="fill:#1c211b"/><path d="M31.2,166.21l.57-.65A2.8,2.8,0,0,0,31.2,166.21Z" style="fill:#1c211b"/><path d="M34.37,164l.13-.32-1-.46C33.43,164,34.17,164,34.37,164Z" style="fill:#1c211b"/><path d="M36.2,161.84c.59-.86.74,0,1.14.15.87-.37.6-1.81.7-2.34C37,160.13,36.79,161,36.2,161.84Z" style="fill:#1c211b"/><path d="M39.71,159.66l-.77,1.92C40.24,161.61,39.49,160.51,39.71,159.66Z" style="fill:#1c211b"/><path d="M39.94,155.78c-.53.14-.59.87-.88,1.3l1.36-.7C40.38,156.17,40,156.19,39.94,155.78Z" style="fill:#1c211b"/><path d="M206.37,167l-.47.88,2.32-.83c-.64-.35-1.53-.39-1.82-1.17l-1,.28a4.83,4.83,0,0,1,2.31,1C207.23,167.42,206.36,167.61,206.37,167Z" style="fill:#1c211b"/><path d="M207.43,165.67c.14-.76-.59-.74-1.45-.55-.65.82,1.1-.81.93.54C207.12,165.57,207.28,165.52,207.43,165.67Z" style="fill:#1c211b"/><path d="M206.91,165.66a2.7,2.7,0,0,1-.54.16l0,.07.5-.14A.31.31,0,0,0,206.91,165.66Z" style="fill:#1c211b"/><path d="M187.06,171l-1.32.47C186.81,171.23,186.71,171.47,187.06,171Z" style="fill:#1c211b"/><path d="M187.2,170.87l-.14.16.33-.11Z" style="fill:#1c211b"/><path d="M137.86,183.52c-.59.45-.07.38.06.81l.44-.2C138.18,184,138.08,183.58,137.86,183.52Z" style="fill:#1c211b"/><path d="M139,183.82l-.68.31C138.5,184.26,138.69,184.26,139,183.82Z" style="fill:#1c211b"/><path d="M135.87,182.67l-1-.5A1.49,1.49,0,0,0,135.87,182.67Z" style="fill:#1c211b"/><path d="M179.75,177.18l-.19-.19a1.53,1.53,0,0,0-.16.25Z" style="fill:#1c211b"/><path d="M177.24,177.34l1.91.29a2,2,0,0,1,.25-.39C178.27,177.39,178.33,176.53,177.24,177.34Z" style="fill:#1c211b"/><path d="M179.22,176.65l.34.34c1.05-1.25,2.26.1,4-1A7.83,7.83,0,0,0,179.22,176.65Z" style="fill:#1c211b"/><path d="M180.77,174.44c.52-.07.65.36.71.58l.93-.57c.08-1-3.1,0-3.95.21l2,.49Z" style="fill:#1c211b"/><path d="M174.81,176.53c1.32-.46,2.32-.81,2.4-1.79l-2.58.55C175.81,175.59,174.82,175.93,174.81,176.53Z" style="fill:#1c211b"/><path d="M147.19,179.9l2.18-.64A3.27,3.27,0,0,0,147.19,179.9Z" style="fill:#1c211b"/><path d="M153.68,166c-1.05.13-.52-.53-.64-1-.85-.42-1.79.74-2.25,1C151.83,166.52,152.63,166.12,153.68,166Z" style="fill:#1c211b"/><path d="M149.68,164.78l2-.7C150.82,163.07,150.48,164.38,149.68,164.78Z" style="fill:#1c211b"/><path d="M146.56,167.17c.46.32,1.05-.13,1.58-.19l-1.44-.57C146.57,166.58,146.83,166.84,146.56,167.17Z" style="fill:#1c211b"/><path d="M198.79,1.46c-.15.77-.74,1.88-1.27,1.31l.37,1.35L199.2.82c-.87.37-1.69,1.28-2.64.86l-.65,1.37A6.21,6.21,0,0,1,198.79,1.46Z" style="fill:#1c211b"/><path d="M196.56,1.68l.31-.68a.71.71,0,0,0-.07-.09,3.47,3.47,0,0,1-.33.73Z" style="fill:#1c211b"/><path d="M196.8.91c.11-.3.21-.52.48-.55-.56-.86-1.18,0-1.77,1C195.66,2.89,195.75-.55,196.8.91Z" style="fill:#1c211b"/><path d="M195.32,8.72c-.2-.11-.52.09-.86.32A1.2,1.2,0,0,0,195.32,8.72Z" style="fill:#1c211b"/><path d="M191.63,9.3c.65-.5,1.3-1,1.83-.44l-.41.64c.32.34.89-.1,1.41-.46C193.54,9,193.28,7.24,191.63,9.3Z" style="fill:#1c211b"/><path d="M194.42,2.26c-1.67-.33-1,1.44-2.82,2.19l.06.6Z" style="fill:#1c211b"/><path d="M182.75,41.16a3.68,3.68,0,0,0,.08.41,3.45,3.45,0,0,0,.25-.44Z" style="fill:#1c211b"/><path d="M185.37,35.83a12.66,12.66,0,0,0-3.22,5.37l.6,0C182.56,38.84,184.84,38.81,185.37,35.83Z" style="fill:#1c211b"/><path d="M178,21.1l0-.07h0c-2.09,0-2.11,2.27-4.12,3.16l1.73.94C176.16,23.15,177.55,23.32,178,21.1Z" style="fill:#1c211b"/><path d="M161.45,44.12q.17-.34.33-.66A5.75,5.75,0,0,0,161.45,44.12Z" style="fill:#1c211b"/><path d="M161.42,47c-.36-1.34,1.25-1.59,1.87-2.39-.45-.25-2.62,1.35-1.84-.45-.47,1-.92,1.86-1.41.66C159.29,46.65,161.27,45.46,161.42,47Z" style="fill:#1c211b"/><path d="M160.42,48.69c-.62.8-1.46,1.76-1.16,2.5C159.64,50.25,161,49.86,160.42,48.69Z" style="fill:#1c211b"/><polygon points="158.66 47.44 157.05 47.7 157.11 48.3 158.66 47.44" style="fill:#1c211b"/><path d="M156.07,53.35a1.16,1.16,0,0,1-1,.38l1.07-3.4L154.29,53C154.38,55.16,155.15,54.46,156.07,53.35Z" style="fill:#1c211b"/><path d="M158.55,51.08l-.12-1.2c-.29-.16-.84,1.34-1.58,2.52C157.46,51.66,158.07,51,158.55,51.08Z" style="fill:#1c211b"/><path d="M156.07,53.35a4.45,4.45,0,0,0,.78-1Z" style="fill:#1c211b"/><path d="M152.66,55.55l-.18.47,1.23.67C153.84,55.63,152.91,55.68,152.66,55.55Z" style="fill:#1c211b"/><path d="M150.17,58.74c-.81,1.26-.93.06-1.43-.21-1.11.53-.91,2.63-1.07,3.4C149,61.23,149.36,60,150.17,58.74Z" style="fill:#1c211b"/><path d="M146.7,59.12c-1.65,0-.79,1.56-1.14,2.79Z" style="fill:#1c211b"/><path d="M144.94,67.55c.68-.19.81-1.26,1.22-1.89l-1.77,1C144.42,67,144.88,67,144.94,67.55Z" style="fill:#1c211b"/></g></g></svg>